<svg xmlns="http://www.w3.org/2000/svg" viewBox="0 0 594.44 284.55"><defs><style>.cls-2{fill:#429de6}.cls-3{fill:#2196f3}</style></defs><g id="Layer_2" data-name="Layer 2"><g id="Layer_1-2" data-name="Layer 1"><g id="logo-dark"><path d="M499.59 47.42l-47.42-23.71v47.43l47.42 23.71z" fill="#3898e5"/><path class="cls-2" d="M499.59 142.27l-47.42-23.71V166l47.42 23.71z"/><path class="cls-3" d="M499.59 237.12l-47.42-23.71v47.42l47.42 23.72z"/><path d="M500.18 95.14l47.42-23.71v47.42l-47.42 23.71z" fill="#b3ecfb"/><path d="M499.59 189.7v47.42L547 213.41V166z" fill="#4aa2e7"/><path d="M547 118.56V166l47.42-23.71V94.85z" fill="#9de6f9"/><path d="M547 213.41l-47.43 23.71v47.43L547 260.83z" fill="#25c8f3"/><path d="M594.44 189.7L547 213.41v47.42l47.42-23.71z" fill="#21c7f3"/><path d="M499.59 189.7v47.42L547 213.41V166z" fill="#85e0f8"/><path d="M452.17 71.14l-47.42-23.72v47.43l47.42 23.71z" fill="#6fbdfc"/><path d="M452.17 166l-47.42-23.72v47.42l47.42 23.71z" fill="#54a7e9"/><path d="M452.17 213.41l-47.42-23.71v47.42l47.42 23.71z" fill="#2a9af3"/><path d="M547 23.71L499.59 0l-47.42 23.71 47.42 23.71z" fill="#aad8fd"/><path class="cls-2" d="M170.49 63.72a44.47 44.47 0 00-6.18-1.57 33.61 33.61 0 00-6.13-.68q-6.92 0-11.25 3.89A14.94 14.94 0 00142 75.64a5.63 5.63 0 002.09 1.62 16.37 16.37 0 004 1.08q2.63.43 7.24.83A81.13 81.13 0 01168 81a14.09 14.09 0 017.28 3.8c1.57 1.74 2.35 4.22 2.35 7.46v5q-.59 10-4.61 16.33T160.78 123q-8.24 3-21.63 3-16.14 0-24.06-6.77t-7.92-20.89a78.89 78.89 0 014-25.46l10.89 3.49c-.91 3.36-1.62 6.51-2.11 9.44a48.51 48.51 0 00-.73 8q0 13.83 23.1 13.83a67.8 67.8 0 0013.73-1.25 51.18 51.18 0 0011.28-3.75l.05-4.32q-2.29-1.12-12.9-1.91-8.6-.56-13.48-2.41a12.33 12.33 0 01-6.84-5.64 21.34 21.34 0 01-2-9.88 38.7 38.7 0 012.62-14.57 32.23 32.23 0 017-10.89 23.09 23.09 0 019.49-6 25.71 25.71 0 014.66-1 39.42 39.42 0 014.95-.32 43.31 43.31 0 016.4.49 59.66 59.66 0 016.35 1.33zm28.94 61.95a31.5 31.5 0 01-8.53-1.13 38.19 38.19 0 01-9.32-4.37l4.21-9.85q11.53-.15 19-2.58a31.86 31.86 0 0012.7-7.53c0-.82-.08-1.61-.12-2.38s-.11-1.57-.18-2.42a44.77 44.77 0 01-7 1.74 48.18 48.18 0 01-8.19.66q-8.15 0-12.39-3.88t-4.24-12a51.62 51.62 0 011.33-11.6 44.72 44.72 0 013.8-10.65 24 24 0 016-7.75 12.44 12.44 0 018.05-2.91 14.53 14.53 0 019.12 3.23 28 28 0 017.33 8.92 52.3 52.3 0 014.78 12.92 67.37 67.37 0 011.71 15.43 52.14 52.14 0 01-3 18.29 28.59 28.59 0 01-9.27 13q-6.22 4.86-15.79 4.86zm15.15-45.13a31.81 31.81 0 00-4.9-11.79q-3.24-4.44-7.16-4.44a4.84 4.84 0 00-3.63 1.77 12.5 12.5 0 00-2.55 4.43 16.43 16.43 0 00-.93 5.42q0 3.34 2.2 4.44a14.61 14.61 0 006.39 1.11 57.4 57.4 0 0010.58-.94zm36.15-12.26q-1.81 9.07-2.65 15.06a77.08 77.08 0 00-.83 10.3q0 7.69 4.93 11.16t16 3.46a75.46 75.46 0 0013.34-1.11 44.54 44.54 0 0010.5-3.06l.05-5.3a98 98 0 00-12.21-2.21c-4.39-.52-9.27-.86-14.67-1l2.7-16.87h32.32v18.12a28.35 28.35 0 01.47 8 20.58 20.58 0 01-1.89 6.69Q296 119 287.71 123t-21.23 4q-16.19 0-23.55-7.28t-7.35-23.08q0-4.06.36-8.41c.25-2.89.66-6.15 1.23-9.76s1.32-7.82 2.23-12.63z"/><path class="cls-2" d="M300.22 96.83a1.72 1.72 0 01-1.55-.81 6 6 0 01-.51-3V82.46a6 6 0 01.51-3 1.72 1.72 0 011.55-.81h23a54.41 54.41 0 006.23-.32 15.68 15.68 0 004.86-1.25 43.46 43.46 0 00-2.77-9.22 93.25 93.25 0 00-4.69-9.66l13-12.71a56.22 56.22 0 015.3 12.39 50.18 50.18 0 012.25 14.82 31.74 31.74 0 01-1.74 10.3 44.61 44.61 0 01-4.93 10 37.93 37.93 0 01-9.19 2.92 59.89 59.89 0 01-11 .91zm32.08 24.82q-9.46 0-22.42 1.08-1.58-1.38-3.33-2.85c.81-2 1.61-3.89 2.38-5.79s1.56-3.79 2.37-5.69q12.76-1.08 20.78-1.08t8 5.94q0 12.4-5.25 18.91t-16.38 8.26l-3.45-3.19q.93-2.3 1.89-4.61t1.89-4.56a107.55 107.55 0 0113.49-1.52c.16-.82.31-1.64.44-2.48s.26-1.64.39-2.42z"/><path class="cls-3" d="M40.81 205.87a43.39 43.39 0 01-3.17 17 29.74 29.74 0 01-8.46 11.83 18.08 18.08 0 01-11.67 4.3 31 31 0 01-8.31-1.08 38.37 38.37 0 01-9.2-4.25l4.22-9.85a60.22 60.22 0 0014.25-4 25.58 25.58 0 0011-8.48 91.76 91.76 0 00-4.87-12.24 104.45 104.45 0 00-7.29-12.61l12.22-15a86.66 86.66 0 018.47 17.6 52.32 52.32 0 012.81 16.78zm23.49-77.01v60.52a9.86 9.86 0 003.48 2.06 16.35 16.35 0 005.45.74v18.15a34.82 34.82 0 01-12-1.74 15.68 15.68 0 01-10.5-11.5 33.27 33.27 0 01-.91-7.85v-18.89q0-8.86-.61-17.14a114.42 114.42 0 00-2-15z"/><path class="cls-3" d="M73.28 192.18h26.33v18.15H73.28a1.92 1.92 0 01-1.62-.76 4.58 4.58 0 01-.59-2.72v-11.19a4.58 4.58 0 01.59-2.72 1.92 1.92 0 011.62-.76z"/><path class="cls-3" d="M99.61 192.18H126v18.15H99.61a1.92 1.92 0 01-1.61-.76 4.58 4.58 0 01-.59-2.72v-11.19a4.58 4.58 0 01.59-2.72 1.92 1.92 0 011.61-.76z"/><path class="cls-3" d="M126 192.18h26.34v18.15H126a1.92 1.92 0 01-1.62-.76 4.65 4.65 0 01-.59-2.72v-11.19a4.65 4.65 0 01.59-2.72 1.92 1.92 0 011.62-.76z"/><path class="cls-3" d="M152.29 192.18h26.34v18.15h-26.34a1.92 1.92 0 01-1.62-.76 4.65 4.65 0 01-.59-2.72v-11.19a4.65 4.65 0 01.59-2.72 1.92 1.92 0 011.62-.76z"/><path class="cls-3" d="M178.63 192.18H205v18.15h-26.37a1.92 1.92 0 01-1.62-.76 4.65 4.65 0 01-.59-2.72v-11.19a4.65 4.65 0 01.59-2.72 1.92 1.92 0 011.62-.76z"/><path class="cls-3" d="M255.88 133.47l-2 16.14a117.75 117.75 0 00-15.32 2q-8.52 1.65-16.31 4a86.55 86.55 0 0111.6 10.74 50 50 0 017.87 11.58 27.17 27.17 0 012.84 11.87 21.08 21.08 0 01-2 9 22.42 22.42 0 01-5.39 7.41 58.27 58.27 0 01-13.27 3.33 111.84 111.84 0 01-14.1.84H205a1.71 1.71 0 01-1.54-.81 6 6 0 01-.52-3V196a6 6 0 01.52-3 1.71 1.71 0 011.54-.81h4.86c2.55 0 5.22-.06 8-.2a55.44 55.44 0 007.8-.88 13.9 13.9 0 005.54-2.11 29.62 29.62 0 00-5-9.27 57.36 57.36 0 00-8.93-8.92l-5.78 2.79-5.74-12.11 1.91-7.65a24.63 24.63 0 012.63-6.58 13 13 0 014.29-4.19 33.35 33.35 0 017.42-3.17q3.83-1.28 9.66-2.58t12.27-2.32q6.4-1.1 11.95-1.53z"/></g></g></g></svg>